<svg width="32" height="32" viewBox="0 0 32 32" fill="none" xmlns="http://www.w3.org/2000/svg">
<path d="M26.2 12.832C22.875 12.832 20.91 15.984 20.785 15.984C20.66 15.984 18.707 12.832 15.355 12.832C12.008 12.832 11.051 15.984 10.949 15.984C10.848 15.984 10.079 13.398 7.18398 13.398C4.83998 13.398 4.51198 14.477 4.31198 14.477C4.31198 14.477 4.48798 13.32 4.83998 11.262H10.621V9H2.80098L1.48098 16.574H4.01098C4.01098 16.574 4.58998 15.508 6.12498 15.508C7.65998 15.508 8.59398 16.688 8.59398 18.02C8.59398 19.348 7.56298 20.805 6.12498 20.805C4.69098 20.805 3.85898 19.575 3.85898 18.723H1.03998C1.03998 19.477 1.64598 23 6.12598 23C9.77798 23 10.95 20.277 10.95 19.953C10.95 20.227 12.36 23 15.36 23C18.837 23 20.587 19.953 20.786 19.953C20.989 19.953 23.056 23 26.204 23C29.353 23 30.966 20.227 30.966 17.89C30.962 15.555 29.528 12.832 26.2 12.832ZM19.105 17.937H19.102C19.082 17.965 17.156 20.301 15.372 20.301C13.578 20.301 13.246 18.516 13.246 17.938C13.246 17.359 13.578 15.574 15.371 15.574C17.156 15.574 19.082 17.91 19.101 17.938L19.105 17.937ZM28.348 17.937C28.348 18.516 28.016 20.305 26.223 20.305C24.441 20.305 22.516 17.969 22.493 17.941V17.938C22.516 17.91 24.441 15.574 26.223 15.574C28.016 15.574 28.348 17.363 28.348 17.937Z" fill="#1A202C"/>
</svg>
