<svg width="253" height="18" viewBox="0 0 253 18" fill="none" xmlns="http://www.w3.org/2000/svg">
<path d="M7.904 6.712C8.928 6.76 9.192 7.632 9.208 8.04H10.64C10.576 6.456 9.448 5.488 7.88 5.488C6.112 5.488 4.8 6.6 4.8 9.112C4.8 10.664 5.544 12.504 7.872 12.504C9.648 12.504 10.6 11.184 10.624 10.144H9.192C9.168 10.616 8.832 11.248 7.888 11.296C6.84 11.264 6.4 10.448 6.4 9.112C6.4 6.8 7.424 6.728 7.904 6.712ZM8 1C3.584 1 0 4.584 0 9C0 13.416 3.584 17 8 17C12.416 17 16 13.416 16 9C16 4.584 12.416 1 8 1ZM8 15.4C4.472 15.4 1.6 12.528 1.6 9C1.6 5.472 4.472 2.6 8 2.6C11.528 2.6 14.4 5.472 14.4 9C14.4 12.528 11.528 15.4 8 15.4Z" fill="#1A202C"/>
<path d="M23.736 7.28H25.496V7.68H23.736V12.592C23.736 12.9973 23.784 13.2747 23.88 13.424C23.976 13.5627 24.1467 13.632 24.392 13.632C24.552 13.632 24.7173 13.5733 24.888 13.456C25.0587 13.328 25.1707 13.1733 25.224 12.992L25.56 13.2C25.3467 13.7973 24.7813 14.096 23.864 14.096C23.32 14.096 22.9307 13.968 22.696 13.712C22.472 13.456 22.36 13.04 22.36 12.464V7.68H21.4V7.28C21.8267 7.28 22.152 7.24267 22.376 7.168C22.6 7.08267 22.776 6.928 22.904 6.704C23.0427 6.48 23.1707 6.128 23.288 5.648H23.736V7.28ZM30.6076 7.12C31.0236 7.12 31.3436 7.23733 31.5676 7.472C31.8023 7.70667 31.9196 8.00533 31.9196 8.368C31.9196 8.61333 31.8556 8.8 31.7276 8.928C31.6103 9.056 31.4503 9.12 31.2476 9.12C31.0983 9.12 30.9596 9.08267 30.8316 9.008C30.7143 8.92267 30.6556 8.79467 30.6556 8.624C30.6556 8.528 30.677 8.40533 30.7196 8.256C30.7623 8.10667 30.7836 7.98933 30.7836 7.904C30.7836 7.81867 30.7516 7.744 30.6876 7.68C30.6343 7.60533 30.5436 7.568 30.4156 7.568C30.085 7.568 29.797 7.728 29.5516 8.048C29.3063 8.35733 29.1143 8.74667 28.9756 9.216C28.837 9.67467 28.757 10.1173 28.7356 10.544V13.312C28.7356 13.5147 28.805 13.616 28.9436 13.616L29.9196 13.584V14H26.6396V13.584L27.1516 13.616C27.2903 13.616 27.3596 13.5147 27.3596 13.312V7.984C27.3596 7.77067 27.2903 7.664 27.1516 7.664L26.5756 7.696V7.28H28.8316C28.8103 7.344 28.789 7.45067 28.7676 7.6C28.7463 7.73867 28.7356 7.87733 28.7356 8.016V8.8C28.981 8.20267 29.253 7.776 29.5516 7.52C29.861 7.25333 30.213 7.12 30.6076 7.12ZM39.0206 13.584V14H36.7486C36.7593 13.9253 36.77 13.8293 36.7806 13.712C36.802 13.584 36.8126 13.4827 36.8126 13.408L36.8446 12.784C36.61 13.2427 36.306 13.5733 35.9326 13.776C35.57 13.9787 35.1326 14.08 34.6206 14.08C33.9486 14.08 33.4366 13.9307 33.0846 13.632C32.7433 13.3227 32.5726 12.8693 32.5726 12.272C32.5726 11.4507 32.914 10.848 33.5966 10.464C34.29 10.0693 35.3726 9.872 36.8446 9.872V8.944C36.8446 8.44267 36.7273 8.08533 36.4926 7.872C36.258 7.65867 35.8793 7.552 35.3566 7.552C34.546 7.552 34.1406 7.776 34.1406 8.224C34.1406 8.30933 34.162 8.41067 34.2046 8.528C34.258 8.63467 34.2846 8.736 34.2846 8.832C34.2846 9.01333 34.226 9.152 34.1086 9.248C33.9913 9.33333 33.842 9.376 33.6606 9.376C33.4366 9.376 33.2606 9.30667 33.1326 9.168C33.0153 9.02933 32.9566 8.848 32.9566 8.624C32.9566 8.176 33.1913 7.81333 33.6606 7.536C34.13 7.25867 34.7593 7.12 35.5486 7.12C37.33 7.12 38.2206 7.872 38.2206 9.376V13.312C38.2206 13.5147 38.29 13.616 38.4286 13.616L39.0206 13.584ZM35.1006 13.504C35.57 13.504 35.97 13.312 36.3006 12.928C36.6313 12.5333 36.8126 12.0267 36.8446 11.408V10.304C35.842 10.304 35.122 10.4533 34.6846 10.752C34.2473 11.04 34.0286 11.504 34.0286 12.144C34.0286 12.592 34.1193 12.9333 34.3006 13.168C34.4926 13.392 34.7593 13.504 35.1006 13.504ZM46.1163 7.28V7.696L45.5883 7.664C45.3963 7.664 45.2736 7.744 45.2203 7.904L42.6923 14.08H42.2603L39.7963 7.872C39.7749 7.81867 39.7323 7.77067 39.6683 7.728C39.6149 7.68533 39.5509 7.664 39.4763 7.664L38.9482 7.696V7.28H42.1963V7.696L41.4923 7.664C41.4176 7.664 41.3483 7.696 41.2843 7.76C41.2309 7.824 41.2203 7.89867 41.2523 7.984L42.9963 12.208L44.6923 7.92C44.7136 7.87733 44.7243 7.83467 44.7243 7.792C44.7243 7.696 44.6709 7.65333 44.5643 7.664L43.8602 7.696V7.28H46.1163ZM49.5885 7.12C50.4312 7.12 51.1085 7.392 51.6205 7.936C52.1432 8.46933 52.4152 9.20533 52.4365 10.144V10.608H47.8285C47.8285 11.5787 47.9938 12.3253 48.3245 12.848C48.6658 13.36 49.1725 13.6213 49.8445 13.632C50.3778 13.632 50.8258 13.4987 51.1885 13.232C51.5618 12.9653 51.8338 12.6347 52.0045 12.24L52.3725 12.512C52.1592 13.024 51.7965 13.4293 51.2845 13.728C50.7832 14.016 50.2285 14.16 49.6205 14.16C47.4552 14.16 46.3725 12.992 46.3725 10.656C46.3725 9.49333 46.6445 8.61333 47.1885 8.016C47.7325 7.41867 48.5325 7.12 49.5885 7.12ZM49.5885 7.552C48.9912 7.552 48.5485 7.79733 48.2605 8.288C47.9832 8.77867 47.8445 9.41867 47.8445 10.208H50.7565C50.8632 10.208 50.9432 10.1707 50.9965 10.096C51.0498 10.0213 51.0765 9.88267 51.0765 9.68C51.0765 8.95467 50.9592 8.42133 50.7245 8.08C50.5005 7.728 50.1218 7.552 49.5885 7.552ZM53.56 13.584L54.152 13.616C54.2907 13.584 54.36 13.4827 54.36 13.312V3.008C54.36 2.82667 54.296 2.71467 54.168 2.672L53.576 2.704V2.304H55.736V13.312C55.736 13.5147 55.8053 13.616 55.944 13.616L56.52 13.584V14H53.56V13.584ZM58.0381 13.248C58.0381 12.9707 58.1341 12.7467 58.3261 12.576C58.5288 12.4053 58.7795 12.32 59.0781 12.32C59.3768 12.32 59.6221 12.4053 59.8141 12.576C60.0168 12.7467 60.1181 12.9707 60.1181 13.248C60.1181 13.5253 60.0168 13.7493 59.8141 13.92C59.6221 14.08 59.3768 14.16 59.0781 14.16C58.7795 14.16 58.5288 14.08 58.3261 13.92C58.1341 13.7493 58.0381 13.5253 58.0381 13.248ZM67.9581 13.584V14H65.6861C65.6968 13.9253 65.7075 13.8293 65.7181 13.712C65.7395 13.584 65.7501 13.4827 65.7501 13.408L65.7821 12.784C65.5475 13.2427 65.2435 13.5733 64.8701 13.776C64.5075 13.9787 64.0701 14.08 63.5581 14.08C62.8861 14.08 62.3741 13.9307 62.0221 13.632C61.6808 13.3227 61.5101 12.8693 61.5101 12.272C61.5101 11.4507 61.8515 10.848 62.5341 10.464C63.2275 10.0693 64.3101 9.872 65.7821 9.872V8.944C65.7821 8.44267 65.6648 8.08533 65.4301 7.872C65.1955 7.65867 64.8168 7.552 64.2941 7.552C63.4835 7.552 63.0781 7.776 63.0781 8.224C63.0781 8.30933 63.0995 8.41067 63.1421 8.528C63.1955 8.63467 63.2221 8.736 63.2221 8.832C63.2221 9.01333 63.1635 9.152 63.0461 9.248C62.9288 9.33333 62.7795 9.376 62.5981 9.376C62.3741 9.376 62.1981 9.30667 62.0701 9.168C61.9528 9.02933 61.8941 8.848 61.8941 8.624C61.8941 8.176 62.1288 7.81333 62.5981 7.536C63.0675 7.25867 63.6968 7.12 64.4861 7.12C66.2675 7.12 67.1581 7.872 67.1581 9.376V13.312C67.1581 13.5147 67.2275 13.616 67.3661 13.616L67.9581 13.584ZM64.0381 13.504C64.5075 13.504 64.9075 13.312 65.2381 12.928C65.5688 12.5333 65.7501 12.0267 65.7821 11.408V10.304C64.7795 10.304 64.0595 10.4533 63.6221 10.752C63.1848 11.04 62.9661 11.504 62.9661 12.144C62.9661 12.592 63.0568 12.9333 63.2381 13.168C63.4301 13.392 63.6968 13.504 64.0381 13.504ZM75.1613 13.584V14H72.8893C72.8999 13.9253 72.9106 13.8293 72.9213 13.712C72.9426 13.584 72.9533 13.4827 72.9533 13.408L72.9852 12.784C72.7506 13.2427 72.4466 13.5733 72.0733 13.776C71.7106 13.9787 71.2733 14.08 70.7613 14.08C70.0893 14.08 69.5773 13.9307 69.2253 13.632C68.8839 13.3227 68.7133 12.8693 68.7133 12.272C68.7133 11.4507 69.0546 10.848 69.7373 10.464C70.4306 10.0693 71.5133 9.872 72.9852 9.872V8.944C72.9852 8.44267 72.8679 8.08533 72.6333 7.872C72.3986 7.65867 72.0199 7.552 71.4973 7.552C70.6866 7.552 70.2812 7.776 70.2812 8.224C70.2812 8.30933 70.3026 8.41067 70.3453 8.528C70.3986 8.63467 70.4253 8.736 70.4253 8.832C70.4253 9.01333 70.3666 9.152 70.2493 9.248C70.1319 9.33333 69.9826 9.376 69.8013 9.376C69.5773 9.376 69.4013 9.30667 69.2733 9.168C69.1559 9.02933 69.0973 8.848 69.0973 8.624C69.0973 8.176 69.3319 7.81333 69.8013 7.536C70.2706 7.25867 70.8999 7.12 71.6893 7.12C73.4706 7.12 74.3613 7.872 74.3613 9.376V13.312C74.3613 13.5147 74.4306 13.616 74.5693 13.616L75.1613 13.584ZM71.2413 13.504C71.7106 13.504 72.1106 13.312 72.4413 12.928C72.7719 12.5333 72.9533 12.0267 72.9852 11.408V10.304C71.9826 10.304 71.2626 10.4533 70.8253 10.752C70.3879 11.04 70.1693 11.504 70.1693 12.144C70.1693 12.592 70.2599 12.9333 70.4413 13.168C70.6333 13.392 70.8999 13.504 71.2413 13.504ZM76.0444 13.584L76.6364 13.616C76.775 13.584 76.8444 13.4827 76.8444 13.312V3.008C76.8444 2.82667 76.7804 2.71467 76.6524 2.672L76.0604 2.704V2.304H78.2204V13.312C78.2204 13.5147 78.2897 13.616 78.4284 13.616L79.0044 13.584V14H76.0444V13.584ZM83.3385 7.12C84.1812 7.12 84.8585 7.392 85.3705 7.936C85.8932 8.46933 86.1652 9.20533 86.1865 10.144V10.608H81.5785C81.5785 11.5787 81.7438 12.3253 82.0745 12.848C82.4158 13.36 82.9225 13.6213 83.5945 13.632C84.1278 13.632 84.5758 13.4987 84.9385 13.232C85.3118 12.9653 85.5838 12.6347 85.7545 12.24L86.1225 12.512C85.9092 13.024 85.5465 13.4293 85.0345 13.728C84.5332 14.016 83.9785 14.16 83.3705 14.16C81.2052 14.16 80.1225 12.992 80.1225 10.656C80.1225 9.49333 80.3945 8.61333 80.9385 8.016C81.4825 7.41867 82.2825 7.12 83.3385 7.12ZM83.3385 7.552C82.7412 7.552 82.2985 7.79733 82.0105 8.288C81.7332 8.77867 81.5945 9.41867 81.5945 10.208H84.5065C84.6132 10.208 84.6932 10.1707 84.7465 10.096C84.7998 10.0213 84.8265 9.88267 84.8265 9.68C84.8265 8.95467 84.7092 8.42133 84.4745 8.08C84.2505 7.728 83.8718 7.552 83.3385 7.552ZM94.398 13.584V14H90.862V13.584L91.646 13.632H91.662C91.726 13.632 91.7633 13.6053 91.774 13.552C91.7953 13.4987 91.79 13.4507 91.758 13.408L90.126 11.088L88.398 13.392L88.366 13.456C88.366 13.5627 88.4353 13.616 88.574 13.616L89.262 13.584V14H86.83V13.584L87.518 13.616C87.6353 13.616 87.7473 13.5467 87.854 13.408L89.854 10.704L87.854 7.872C87.7793 7.73333 87.678 7.664 87.55 7.664L86.926 7.696V7.28H90.366V7.696L89.63 7.664C89.5553 7.664 89.4967 7.68533 89.454 7.728C89.422 7.76 89.4327 7.808 89.486 7.872L90.862 9.824L92.286 7.936C92.318 7.88267 92.334 7.83467 92.334 7.792C92.334 7.70667 92.286 7.664 92.19 7.664L91.502 7.696V7.28H93.886V7.696L93.214 7.664C93.1607 7.664 93.0913 7.68533 93.006 7.728C92.9313 7.77067 92.8673 7.82933 92.814 7.904L91.134 10.208L93.39 13.408C93.486 13.5467 93.5873 13.616 93.694 13.616L94.398 13.584ZM101.411 13.584V14H99.1393C99.1499 13.9253 99.1606 13.8293 99.1713 13.712C99.1926 13.584 99.2033 13.4827 99.2033 13.408L99.2352 12.784C99.0006 13.2427 98.6966 13.5733 98.3233 13.776C97.9606 13.9787 97.5233 14.08 97.0113 14.08C96.3393 14.08 95.8273 13.9307 95.4753 13.632C95.1339 13.3227 94.9633 12.8693 94.9633 12.272C94.9633 11.4507 95.3046 10.848 95.9873 10.464C96.6806 10.0693 97.7633 9.872 99.2352 9.872V8.944C99.2352 8.44267 99.1179 8.08533 98.8833 7.872C98.6486 7.65867 98.2699 7.552 97.7473 7.552C96.9366 7.552 96.5312 7.776 96.5312 8.224C96.5312 8.30933 96.5526 8.41067 96.5953 8.528C96.6486 8.63467 96.6753 8.736 96.6753 8.832C96.6753 9.01333 96.6166 9.152 96.4993 9.248C96.3819 9.33333 96.2326 9.376 96.0513 9.376C95.8273 9.376 95.6513 9.30667 95.5233 9.168C95.4059 9.02933 95.3473 8.848 95.3473 8.624C95.3473 8.176 95.5819 7.81333 96.0513 7.536C96.5206 7.25867 97.1499 7.12 97.9393 7.12C99.7206 7.12 100.611 7.872 100.611 9.376V13.312C100.611 13.5147 100.681 13.616 100.819 13.616L101.411 13.584ZM97.4913 13.504C97.9606 13.504 98.3606 13.312 98.6913 12.928C99.0219 12.5333 99.2033 12.0267 99.2352 11.408V10.304C98.2326 10.304 97.5126 10.4533 97.0753 10.752C96.6379 11.04 96.4193 11.504 96.4193 12.144C96.4193 12.592 96.5099 12.9333 96.6913 13.168C96.8833 13.392 97.1499 13.504 97.4913 13.504ZM109.814 13.584V14H106.694V13.584L107.43 13.616C107.569 13.584 107.638 13.4827 107.638 13.312V9.68C107.638 9.168 107.612 8.77333 107.558 8.496C107.516 8.21867 107.42 8.00533 107.27 7.856C107.121 7.70667 106.886 7.632 106.566 7.632C105.958 7.632 105.462 7.89333 105.078 8.416C104.705 8.928 104.502 9.62133 104.47 10.496V13.312C104.47 13.5147 104.54 13.616 104.678 13.616L105.414 13.584V14H102.294V13.584L102.886 13.616C103.025 13.584 103.094 13.4827 103.094 13.312V7.984C103.094 7.80267 103.025 7.696 102.886 7.664L102.294 7.696V7.28H104.55C104.497 7.44 104.47 7.62667 104.47 7.84V8.72C104.694 8.21867 105.014 7.82933 105.43 7.552C105.846 7.264 106.326 7.12 106.87 7.12C107.628 7.12 108.172 7.30133 108.502 7.664C108.844 8.016 109.014 8.592 109.014 9.392V13.312C109.014 13.5147 109.084 13.616 109.222 13.616L109.814 13.584ZM110.701 10.656C110.701 9.49333 110.951 8.61333 111.453 8.016C111.965 7.41867 112.722 7.12 113.725 7.12C114.215 7.12 114.615 7.24267 114.925 7.488C115.245 7.73333 115.458 8.048 115.565 8.432V3.008C115.565 2.79467 115.495 2.688 115.357 2.688L114.621 2.72V2.32H116.957V13.312C116.957 13.5147 117.026 13.616 117.165 13.616L117.757 13.584V14H115.453C115.474 13.9147 115.485 13.8293 115.485 13.744V13.392C115.485 13.2533 115.49 13.1467 115.501 13.072C115.511 12.9973 115.517 12.9493 115.517 12.928C115.389 13.3227 115.181 13.6267 114.893 13.84C114.615 14.0533 114.231 14.16 113.741 14.16C112.653 14.16 111.874 13.8773 111.405 13.312C110.935 12.736 110.701 11.8507 110.701 10.656ZM112.173 10.656C112.173 11.4347 112.215 12.0427 112.301 12.48C112.397 12.9173 112.557 13.2373 112.781 13.44C113.005 13.632 113.325 13.728 113.741 13.728C114.391 13.728 114.85 13.5147 115.117 13.088C115.394 12.6613 115.533 11.984 115.533 11.056V10.384C115.533 9.488 115.383 8.79467 115.085 8.304C114.786 7.80267 114.333 7.552 113.725 7.552C113.149 7.552 112.743 7.81867 112.509 8.352C112.285 8.88533 112.173 9.65333 112.173 10.656ZM122.67 7.12C123.086 7.12 123.406 7.23733 123.63 7.472C123.865 7.70667 123.982 8.00533 123.982 8.368C123.982 8.61333 123.918 8.8 123.79 8.928C123.673 9.056 123.513 9.12 123.31 9.12C123.161 9.12 123.022 9.08267 122.894 9.008C122.777 8.92267 122.718 8.79467 122.718 8.624C122.718 8.528 122.739 8.40533 122.782 8.256C122.825 8.10667 122.846 7.98933 122.846 7.904C122.846 7.81867 122.814 7.744 122.75 7.68C122.697 7.60533 122.606 7.568 122.478 7.568C122.147 7.568 121.859 7.728 121.614 8.048C121.369 8.35733 121.177 8.74667 121.038 9.216C120.899 9.67467 120.819 10.1173 120.798 10.544V13.312C120.798 13.5147 120.867 13.616 121.006 13.616L121.982 13.584V14H118.702V13.584L119.214 13.616C119.353 13.616 119.422 13.5147 119.422 13.312V7.984C119.422 7.77067 119.353 7.664 119.214 7.664L118.638 7.696V7.28H120.894C120.873 7.344 120.851 7.45067 120.83 7.6C120.809 7.73867 120.798 7.87733 120.798 8.016V8.8C121.043 8.20267 121.315 7.776 121.614 7.52C121.923 7.25333 122.275 7.12 122.67 7.12ZM131.083 13.584V14H128.811C128.822 13.9253 128.832 13.8293 128.843 13.712C128.864 13.584 128.875 13.4827 128.875 13.408L128.907 12.784C128.672 13.2427 128.368 13.5733 127.995 13.776C127.632 13.9787 127.195 14.08 126.683 14.08C126.011 14.08 125.499 13.9307 125.147 13.632C124.806 13.3227 124.635 12.8693 124.635 12.272C124.635 11.4507 124.976 10.848 125.659 10.464C126.352 10.0693 127.435 9.872 128.907 9.872V8.944C128.907 8.44267 128.79 8.08533 128.555 7.872C128.32 7.65867 127.942 7.552 127.419 7.552C126.608 7.552 126.203 7.776 126.203 8.224C126.203 8.30933 126.224 8.41067 126.267 8.528C126.32 8.63467 126.347 8.736 126.347 8.832C126.347 9.01333 126.288 9.152 126.171 9.248C126.054 9.33333 125.904 9.376 125.723 9.376C125.499 9.376 125.323 9.30667 125.195 9.168C125.078 9.02933 125.019 8.848 125.019 8.624C125.019 8.176 125.254 7.81333 125.723 7.536C126.192 7.25867 126.822 7.12 127.611 7.12C129.392 7.12 130.283 7.872 130.283 9.376V13.312C130.283 13.5147 130.352 13.616 130.491 13.616L131.083 13.584ZM127.163 13.504C127.632 13.504 128.032 13.312 128.363 12.928C128.694 12.5333 128.875 12.0267 128.907 11.408V10.304C127.904 10.304 127.184 10.4533 126.747 10.752C126.31 11.04 126.091 11.504 126.091 12.144C126.091 12.592 126.182 12.9333 126.363 13.168C126.555 13.392 126.822 13.504 127.163 13.504ZM131.822 11.152C131.822 10.0107 132.1 8.928 132.654 7.904C133.209 6.86933 133.966 6.03733 134.926 5.408C135.897 4.77867 136.969 4.464 138.142 4.464C139.028 4.464 139.828 4.672 140.542 5.088C141.257 5.49333 141.817 6.048 142.222 6.752C142.628 7.456 142.83 8.24 142.83 9.104C142.83 9.904 142.612 10.688 142.174 11.456C141.748 12.2133 141.15 12.8693 140.382 13.424C139.988 13.712 139.678 13.904 139.454 14C139.23 14.1067 138.996 14.16 138.75 14.16C138.601 14.16 138.5 14.1013 138.446 13.984C138.393 13.8667 138.366 13.68 138.366 13.424C138.366 12.9013 138.494 12.096 138.75 11.008C138.142 12.16 137.598 12.976 137.118 13.456C136.638 13.9253 136.142 14.16 135.63 14.16C135.161 14.16 134.798 13.9893 134.542 13.648C134.286 13.296 134.158 12.816 134.158 12.208C134.158 11.4613 134.356 10.6933 134.75 9.904C135.156 9.104 135.689 8.44267 136.35 7.92C137.012 7.38667 137.705 7.12 138.43 7.12C138.654 7.12 138.836 7.168 138.974 7.264C139.113 7.36 139.236 7.52 139.342 7.744L139.422 7.424L140.894 7.152L140.526 8.72C140.078 10.7573 139.854 12.0267 139.854 12.528C139.854 12.7093 139.924 12.8 140.062 12.8C140.35 12.8 140.676 12.6187 141.038 12.256C141.401 11.8827 141.705 11.4133 141.95 10.848C142.206 10.272 142.334 9.696 142.334 9.12C142.334 8.36267 142.148 7.664 141.774 7.024C141.412 6.384 140.91 5.87733 140.27 5.504C139.63 5.12 138.921 4.928 138.142 4.928C137.012 4.928 136.036 5.23733 135.214 5.856C134.393 6.47467 133.769 7.26933 133.342 8.24C132.926 9.21067 132.718 10.208 132.718 11.232C132.718 12.1493 132.916 12.96 133.31 13.664C133.705 14.3573 134.265 14.896 134.99 15.28C135.726 15.664 136.585 15.856 137.566 15.856C138.516 15.856 139.353 15.696 140.078 15.376C140.814 15.0667 141.529 14.56 142.222 13.856L142.51 14.208C141.774 14.9653 141.006 15.504 140.206 15.824C139.406 16.1547 138.478 16.32 137.422 16.32C136.302 16.32 135.316 16.1067 134.462 15.68C133.62 15.264 132.969 14.6667 132.51 13.888C132.052 13.1093 131.822 12.1973 131.822 11.152ZM135.582 12.032C135.582 12.864 135.849 13.28 136.382 13.28C136.596 13.28 136.932 12.9973 137.39 12.432C137.849 11.8667 138.254 11.2053 138.606 10.448C138.969 9.69067 139.15 9.01867 139.15 8.432C139.15 8.208 139.081 8.016 138.942 7.856C138.814 7.68533 138.654 7.6 138.462 7.6C137.95 7.6 137.476 7.82933 137.038 8.288C136.601 8.74667 136.238 9.36533 135.95 10.144C135.705 10.8267 135.582 11.456 135.582 12.032ZM149.506 6.848C149.399 6.848 149.228 6.90667 148.994 7.024C148.77 7.14133 148.588 7.28533 148.45 7.456C149.239 7.85067 149.634 8.53867 149.634 9.52C149.634 10.224 149.383 10.8 148.882 11.248C148.38 11.6853 147.719 11.904 146.898 11.904C146.45 11.904 146.034 11.824 145.65 11.664C145.287 11.888 145.106 12.1227 145.106 12.368C145.106 12.7627 145.404 12.96 146.002 12.96H148.13C148.919 12.96 149.511 13.1307 149.906 13.472C150.311 13.8133 150.514 14.384 150.514 15.184C150.514 15.728 150.354 16.208 150.034 16.624C149.724 17.04 149.282 17.36 148.706 17.584C148.13 17.808 147.463 17.92 146.706 17.92C145.767 17.92 145.042 17.7387 144.53 17.376C144.028 17.0133 143.778 16.4853 143.778 15.792C143.778 15.3653 143.895 15.0027 144.13 14.704C144.375 14.4053 144.738 14.144 145.218 13.92C144.428 13.7707 144.034 13.4187 144.034 12.864C144.034 12.6613 144.087 12.4907 144.194 12.352C144.311 12.2027 144.508 12.016 144.786 11.792L145.218 11.44C144.898 11.2373 144.642 10.976 144.45 10.656C144.268 10.3253 144.178 9.94667 144.178 9.52C144.178 8.80533 144.428 8.22933 144.93 7.792C145.442 7.344 146.098 7.12 146.898 7.12C147.346 7.12 147.751 7.184 148.114 7.312C148.38 6.94933 148.706 6.62933 149.09 6.352C149.484 6.064 149.788 5.92 150.002 5.92C150.268 5.92 150.455 5.99467 150.562 6.144C150.679 6.28267 150.738 6.44267 150.738 6.624C150.738 6.76267 150.69 6.896 150.594 7.024C150.498 7.152 150.375 7.216 150.226 7.216C150.098 7.216 150.002 7.2 149.938 7.168C149.874 7.12533 149.804 7.06133 149.73 6.976C149.666 6.89067 149.591 6.848 149.506 6.848ZM146.898 11.536C147.399 11.536 147.74 11.3867 147.922 11.088C148.114 10.7787 148.21 10.256 148.21 9.52C148.21 8.80533 148.114 8.29867 147.922 8C147.73 7.70133 147.388 7.552 146.898 7.552C146.407 7.552 146.066 7.696 145.874 7.984C145.692 8.26133 145.602 8.77333 145.602 9.52C145.602 10.0427 145.639 10.448 145.714 10.736C145.788 11.024 145.916 11.232 146.098 11.36C146.29 11.4773 146.556 11.536 146.898 11.536ZM146.29 14C145.98 14 145.692 14.0853 145.426 14.256C145.159 14.4267 144.946 14.6453 144.786 14.912C144.636 15.1893 144.562 15.472 144.562 15.76C144.562 16.2827 144.738 16.704 145.09 17.024C145.452 17.344 145.986 17.504 146.69 17.504C147.575 17.504 148.258 17.3013 148.738 16.896C149.218 16.4907 149.458 15.9573 149.458 15.296C149.458 14.8587 149.33 14.5333 149.074 14.32C148.828 14.1067 148.434 14 147.89 14H146.29ZM163.121 13.584V14H160.001V13.584L160.737 13.616C160.876 13.584 160.945 13.4827 160.945 13.312V9.68C160.945 9.168 160.918 8.77333 160.865 8.496C160.822 8.21867 160.726 8.00533 160.577 7.856C160.428 7.70667 160.193 7.632 159.873 7.632C159.308 7.632 158.833 7.888 158.449 8.4C158.076 8.912 157.873 9.58933 157.841 10.432V13.312C157.841 13.5147 157.91 13.616 158.049 13.616L158.801 13.584V14H155.521V13.584L156.257 13.616C156.396 13.584 156.465 13.4827 156.465 13.312V9.648C156.465 9.09333 156.433 8.67733 156.369 8.4C156.316 8.12267 156.209 7.93067 156.049 7.824C155.9 7.70667 155.66 7.648 155.329 7.648C154.785 7.648 154.337 7.89333 153.985 8.384C153.633 8.87467 153.43 9.51467 153.377 10.304L153.361 13.312C153.361 13.5147 153.43 13.616 153.569 13.616L154.305 13.584V14H151.185V13.584L151.777 13.616C151.916 13.584 151.985 13.4827 151.985 13.312V7.984C151.985 7.89867 151.964 7.824 151.921 7.76C151.889 7.696 151.841 7.664 151.777 7.664L151.185 7.696V7.28H153.457C153.404 7.44 153.377 7.62133 153.377 7.824V8.704C153.537 8.23467 153.82 7.856 154.225 7.568C154.63 7.26933 155.121 7.12 155.697 7.12C156.305 7.12 156.78 7.248 157.121 7.504C157.473 7.76 157.697 8.23467 157.793 8.928C157.974 8.34133 158.273 7.89333 158.689 7.584C159.116 7.27467 159.612 7.12 160.177 7.12C160.934 7.12 161.478 7.30133 161.809 7.664C162.15 8.016 162.321 8.592 162.321 9.392V13.312C162.321 13.5147 162.39 13.616 162.529 13.616L163.121 13.584ZM153.361 10.752V10.88V10.752ZM170.318 13.584V14H168.046C168.056 13.9253 168.067 13.8293 168.078 13.712C168.099 13.584 168.11 13.4827 168.11 13.408L168.141 12.784C167.907 13.2427 167.603 13.5733 167.23 13.776C166.867 13.9787 166.43 14.08 165.918 14.08C165.246 14.08 164.734 13.9307 164.382 13.632C164.04 13.3227 163.87 12.8693 163.87 12.272C163.87 11.4507 164.211 10.848 164.894 10.464C165.587 10.0693 166.67 9.872 168.141 9.872V8.944C168.141 8.44267 168.024 8.08533 167.79 7.872C167.555 7.65867 167.176 7.552 166.654 7.552C165.843 7.552 165.438 7.776 165.438 8.224C165.438 8.30933 165.459 8.41067 165.502 8.528C165.555 8.63467 165.582 8.736 165.582 8.832C165.582 9.01333 165.523 9.152 165.406 9.248C165.288 9.33333 165.139 9.376 164.958 9.376C164.734 9.376 164.558 9.30667 164.43 9.168C164.312 9.02933 164.254 8.848 164.254 8.624C164.254 8.176 164.488 7.81333 164.958 7.536C165.427 7.25867 166.056 7.12 166.846 7.12C168.627 7.12 169.518 7.872 169.518 9.376V13.312C169.518 13.5147 169.587 13.616 169.726 13.616L170.318 13.584ZM166.398 13.504C166.867 13.504 167.267 13.312 167.598 12.928C167.928 12.5333 168.11 12.0267 168.141 11.408V10.304C167.139 10.304 166.419 10.4533 165.982 10.752C165.544 11.04 165.326 11.504 165.326 12.144C165.326 12.592 165.416 12.9333 165.598 13.168C165.79 13.392 166.056 13.504 166.398 13.504ZM172.577 3.712C172.833 3.712 173.041 3.78133 173.201 3.92C173.371 4.05867 173.457 4.24 173.457 4.464C173.457 4.70933 173.377 4.90133 173.217 5.04C173.057 5.168 172.843 5.232 172.577 5.232C172.321 5.232 172.113 5.168 171.953 5.04C171.793 4.90133 171.713 4.70933 171.713 4.464C171.713 4.24 171.793 4.05867 171.953 3.92C172.113 3.78133 172.321 3.712 172.577 3.712ZM173.377 13.312C173.377 13.5147 173.446 13.616 173.585 13.616L174.161 13.584V14H171.201V13.584L171.793 13.616C171.931 13.616 172.001 13.5147 172.001 13.312V7.984C172.001 7.80267 171.937 7.696 171.809 7.664L171.217 7.696V7.28H173.377V13.312ZM175.279 13.584L175.871 13.616C176.009 13.584 176.079 13.4827 176.079 13.312V3.008C176.079 2.82667 176.015 2.71467 175.887 2.672L175.295 2.704V2.304H177.455V13.312C177.455 13.5147 177.524 13.616 177.663 13.616L178.239 13.584V14H175.279V13.584ZM179.757 13.248C179.757 12.9707 179.853 12.7467 180.045 12.576C180.248 12.4053 180.498 12.32 180.797 12.32C181.096 12.32 181.341 12.4053 181.533 12.576C181.736 12.7467 181.837 12.9707 181.837 13.248C181.837 13.5253 181.736 13.7493 181.533 13.92C181.341 14.08 181.096 14.16 180.797 14.16C180.498 14.16 180.248 14.08 180.045 13.92C179.853 13.7493 179.757 13.5253 179.757 13.248ZM186.509 7.12C186.946 7.12 187.352 7.19467 187.725 7.344C188.109 7.48267 188.413 7.68 188.637 7.936C188.872 8.18133 188.989 8.45333 188.989 8.752C188.989 8.976 188.925 9.168 188.797 9.328C188.68 9.47733 188.488 9.552 188.221 9.552C187.848 9.552 187.661 9.392 187.661 9.072C187.661 8.98667 187.682 8.88 187.725 8.752C187.778 8.624 187.805 8.50133 187.805 8.384C187.805 8.11733 187.682 7.91467 187.437 7.776C187.192 7.62667 186.898 7.552 186.557 7.552C186.002 7.552 185.581 7.776 185.293 8.224C185.005 8.672 184.861 9.44 184.861 10.528C184.861 11.6053 185.01 12.4107 185.309 12.944C185.608 13.4667 186.061 13.728 186.669 13.728C187.202 13.728 187.677 13.5787 188.093 13.28C188.52 12.9813 188.797 12.56 188.925 12.016L189.309 12.304C189.117 12.88 188.786 13.3333 188.317 13.664C187.858 13.9947 187.282 14.16 186.589 14.16C185.586 14.16 184.797 13.856 184.221 13.248C183.656 12.6293 183.373 11.7813 183.373 10.704C183.373 9.97867 183.501 9.34933 183.757 8.816C184.024 8.272 184.392 7.856 184.861 7.568C185.341 7.26933 185.89 7.12 186.509 7.12ZM190.154 10.624C190.154 9.536 190.426 8.68267 190.97 8.064C191.514 7.43467 192.314 7.12 193.37 7.12C194.426 7.12 195.226 7.43467 195.77 8.064C196.314 8.68267 196.586 9.536 196.586 10.624C196.586 11.7333 196.314 12.6027 195.77 13.232C195.226 13.8507 194.426 14.16 193.37 14.16C192.314 14.16 191.514 13.8507 190.97 13.232C190.426 12.6027 190.154 11.7333 190.154 10.624ZM191.61 10.656C191.61 11.7333 191.743 12.5173 192.01 13.008C192.287 13.488 192.74 13.728 193.37 13.728C193.999 13.728 194.447 13.488 194.714 13.008C194.991 12.5173 195.13 11.7333 195.13 10.656C195.13 9.568 194.991 8.77867 194.714 8.288C194.447 7.79733 193.999 7.552 193.37 7.552C192.74 7.552 192.287 7.79733 192.01 8.288C191.743 8.77867 191.61 9.568 191.61 10.656ZM209.637 13.584V14H206.517V13.584L207.253 13.616C207.391 13.584 207.461 13.4827 207.461 13.312V9.68C207.461 9.168 207.434 8.77333 207.381 8.496C207.338 8.21867 207.242 8.00533 207.093 7.856C206.943 7.70667 206.709 7.632 206.389 7.632C205.823 7.632 205.349 7.888 204.965 8.4C204.591 8.912 204.389 9.58933 204.357 10.432V13.312C204.357 13.5147 204.426 13.616 204.565 13.616L205.317 13.584V14H202.037V13.584L202.773 13.616C202.911 13.584 202.981 13.4827 202.981 13.312V9.648C202.981 9.09333 202.949 8.67733 202.885 8.4C202.831 8.12267 202.725 7.93067 202.565 7.824C202.415 7.70667 202.175 7.648 201.845 7.648C201.301 7.648 200.853 7.89333 200.501 8.384C200.149 8.87467 199.946 9.51467 199.893 10.304L199.877 13.312C199.877 13.5147 199.946 13.616 200.085 13.616L200.821 13.584V14H197.701V13.584L198.293 13.616C198.431 13.584 198.501 13.4827 198.501 13.312V7.984C198.501 7.89867 198.479 7.824 198.437 7.76C198.405 7.696 198.357 7.664 198.293 7.664L197.701 7.696V7.28H199.973C199.919 7.44 199.893 7.62133 199.893 7.824V8.704C200.053 8.23467 200.335 7.856 200.741 7.568C201.146 7.26933 201.637 7.12 202.213 7.12C202.821 7.12 203.295 7.248 203.637 7.504C203.989 7.76 204.213 8.23467 204.309 8.928C204.49 8.34133 204.789 7.89333 205.205 7.584C205.631 7.27467 206.127 7.12 206.693 7.12C207.45 7.12 207.994 7.30133 208.325 7.664C208.666 8.016 208.837 8.592 208.837 9.392V13.312C208.837 13.5147 208.906 13.616 209.045 13.616L209.637 13.584ZM199.877 10.752V10.88V10.752Z" fill="black"/>
</svg>
