<svg width="109" height="30" viewBox="0 0 109 17" fill="none" xmlns="http://www.w3.org/2000/svg">
<path d="M7.904 6.712C8.928 6.76 9.192 7.632 9.208 8.04H10.64C10.576 6.456 9.448 5.488 7.88 5.488C6.112 5.488 4.8 6.6 4.8 9.112C4.8 10.664 5.544 12.504 7.872 12.504C9.648 12.504 10.6 11.184 10.624 10.144H9.192C9.168 10.616 8.832 11.248 7.888 11.296C6.84 11.264 6.4 10.448 6.4 9.112C6.4 6.8 7.424 6.728 7.904 6.712ZM8 1C3.584 1 0 4.584 0 9C0 13.416 3.584 17 8 17C12.416 17 16 13.416 16 9C16 4.584 12.416 1 8 1ZM8 15.4C4.472 15.4 1.6 12.528 1.6 9C1.6 5.472 4.472 2.6 8 2.6C11.528 2.6 14.4 5.472 14.4 9C14.4 12.528 11.528 15.4 8 15.4Z" fill="#1A202C"/>
<path d="M30.936 13.536V14H26.696V13.536L27.48 13.568C27.8 13.6 27.96 13.472 27.96 13.184C27.96 13.0027 27.9067 12.7947 27.8 12.56L27.016 10.672H23.288L22.552 12.464C22.4027 12.7947 22.328 13.0613 22.328 13.264C22.328 13.488 22.4453 13.5947 22.68 13.584L23.448 13.536V14H20.68V13.536L21.096 13.568H21.16C21.3733 13.568 21.5493 13.4667 21.688 13.264C21.848 13.0293 22.008 12.72 22.168 12.336L25.512 4.288H25.928L29.304 12.368C29.4533 12.752 29.608 13.056 29.768 13.28C29.9173 13.472 30.104 13.568 30.328 13.568H30.408L30.936 13.536ZM23.48 10.224H26.824L25.144 6.192L23.48 10.224ZM31.1694 13.584L31.7614 13.616C31.9 13.584 31.9694 13.4827 31.9694 13.312V3.008C31.9694 2.82667 31.9054 2.71467 31.7774 2.672L31.1854 2.704V2.304H33.3454V13.312C33.3454 13.5147 33.4147 13.616 33.5534 13.616L34.1294 13.584V14H31.1694V13.584ZM38.4635 7.12C39.3062 7.12 39.9835 7.392 40.4955 7.936C41.0182 8.46933 41.2902 9.20533 41.3115 10.144V10.608H36.7035C36.7035 11.5787 36.8688 12.3253 37.1995 12.848C37.5408 13.36 38.0475 13.6213 38.7195 13.632C39.2528 13.632 39.7008 13.4987 40.0635 13.232C40.4368 12.9653 40.7088 12.6347 40.8795 12.24L41.2475 12.512C41.0342 13.024 40.6715 13.4293 40.1595 13.728C39.6582 14.016 39.1035 14.16 38.4955 14.16C36.3302 14.16 35.2475 12.992 35.2475 10.656C35.2475 9.49333 35.5195 8.61333 36.0635 8.016C36.6075 7.41867 37.4075 7.12 38.4635 7.12ZM38.4635 7.552C37.8662 7.552 37.4235 7.79733 37.1355 8.288C36.8582 8.77867 36.7195 9.41867 36.7195 10.208H39.6315C39.7382 10.208 39.8182 10.1707 39.8715 10.096C39.9248 10.0213 39.9515 9.88267 39.9515 9.68C39.9515 8.95467 39.8342 8.42133 39.5995 8.08C39.3755 7.728 38.9968 7.552 38.4635 7.552ZM49.523 13.584V14H45.987V13.584L46.771 13.632H46.787C46.851 13.632 46.8883 13.6053 46.899 13.552C46.9203 13.4987 46.915 13.4507 46.883 13.408L45.251 11.088L43.523 13.392L43.491 13.456C43.491 13.5627 43.5603 13.616 43.699 13.616L44.387 13.584V14H41.955V13.584L42.643 13.616C42.7603 13.616 42.8723 13.5467 42.979 13.408L44.979 10.704L42.979 7.872C42.9043 7.73333 42.803 7.664 42.675 7.664L42.051 7.696V7.28H45.491V7.696L44.755 7.664C44.6803 7.664 44.6217 7.68533 44.579 7.728C44.547 7.76 44.5577 7.808 44.611 7.872L45.987 9.824L47.411 7.936C47.443 7.88267 47.459 7.83467 47.459 7.792C47.459 7.70667 47.411 7.664 47.315 7.664L46.627 7.696V7.28H49.011V7.696L48.339 7.664C48.2857 7.664 48.2163 7.68533 48.131 7.728C48.0563 7.77067 47.9923 7.82933 47.939 7.904L46.259 10.208L48.515 13.408C48.611 13.5467 48.7123 13.616 48.819 13.616L49.523 13.584ZM56.5363 13.584V14H54.2643C54.2749 13.9253 54.2856 13.8293 54.2963 13.712C54.3176 13.584 54.3283 13.4827 54.3283 13.408L54.3602 12.784C54.1256 13.2427 53.8216 13.5733 53.4483 13.776C53.0856 13.9787 52.6483 14.08 52.1363 14.08C51.4643 14.08 50.9523 13.9307 50.6003 13.632C50.2589 13.3227 50.0883 12.8693 50.0883 12.272C50.0883 11.4507 50.4296 10.848 51.1123 10.464C51.8056 10.0693 52.8883 9.872 54.3602 9.872V8.944C54.3602 8.44267 54.2429 8.08533 54.0083 7.872C53.7736 7.65867 53.3949 7.552 52.8723 7.552C52.0616 7.552 51.6562 7.776 51.6562 8.224C51.6562 8.30933 51.6776 8.41067 51.7203 8.528C51.7736 8.63467 51.8003 8.736 51.8003 8.832C51.8003 9.01333 51.7416 9.152 51.6243 9.248C51.5069 9.33333 51.3576 9.376 51.1763 9.376C50.9523 9.376 50.7763 9.30667 50.6483 9.168C50.5309 9.02933 50.4723 8.848 50.4723 8.624C50.4723 8.176 50.7069 7.81333 51.1763 7.536C51.6456 7.25867 52.2749 7.12 53.0643 7.12C54.8456 7.12 55.7363 7.872 55.7363 9.376V13.312C55.7363 13.5147 55.8056 13.616 55.9443 13.616L56.5363 13.584ZM52.6163 13.504C53.0856 13.504 53.4856 13.312 53.8163 12.928C54.1469 12.5333 54.3283 12.0267 54.3602 11.408V10.304C53.3576 10.304 52.6376 10.4533 52.2003 10.752C51.7629 11.04 51.5443 11.504 51.5443 12.144C51.5443 12.592 51.6349 12.9333 51.8163 13.168C52.0083 13.392 52.2749 13.504 52.6163 13.504ZM64.9394 13.584V14H61.8194V13.584L62.5554 13.616C62.694 13.584 62.7634 13.4827 62.7634 13.312V9.68C62.7634 9.168 62.7367 8.77333 62.6834 8.496C62.6407 8.21867 62.5447 8.00533 62.3954 7.856C62.246 7.70667 62.0114 7.632 61.6914 7.632C61.0834 7.632 60.5874 7.89333 60.2034 8.416C59.83 8.928 59.6274 9.62133 59.5954 10.496V13.312C59.5954 13.5147 59.6647 13.616 59.8034 13.616L60.5394 13.584V14H57.4194V13.584L58.0114 13.616C58.15 13.584 58.2194 13.4827 58.2194 13.312V7.984C58.2194 7.80267 58.15 7.696 58.0114 7.664L57.4194 7.696V7.28H59.6754C59.622 7.44 59.5954 7.62667 59.5954 7.84V8.72C59.8194 8.21867 60.1394 7.82933 60.5554 7.552C60.9714 7.264 61.4514 7.12 61.9954 7.12C62.7527 7.12 63.2967 7.30133 63.6274 7.664C63.9687 8.016 64.1394 8.592 64.1394 9.392V13.312C64.1394 13.5147 64.2087 13.616 64.3474 13.616L64.9394 13.584ZM65.8256 10.656C65.8256 9.49333 66.0763 8.61333 66.5776 8.016C67.0896 7.41867 67.847 7.12 68.8496 7.12C69.3403 7.12 69.7403 7.24267 70.0496 7.488C70.3696 7.73333 70.583 8.048 70.6896 8.432V3.008C70.6896 2.79467 70.6203 2.688 70.4816 2.688L69.7456 2.72V2.32H72.0816V13.312C72.0816 13.5147 72.151 13.616 72.2896 13.616L72.8816 13.584V14H70.5776C70.599 13.9147 70.6096 13.8293 70.6096 13.744V13.392C70.6096 13.2533 70.615 13.1467 70.6256 13.072C70.6363 12.9973 70.6416 12.9493 70.6416 12.928C70.5136 13.3227 70.3056 13.6267 70.0176 13.84C69.7403 14.0533 69.3563 14.16 68.8656 14.16C67.7776 14.16 66.999 13.8773 66.5296 13.312C66.0603 12.736 65.8256 11.8507 65.8256 10.656ZM67.2976 10.656C67.2976 11.4347 67.3403 12.0427 67.4256 12.48C67.5216 12.9173 67.6816 13.2373 67.9056 13.44C68.1296 13.632 68.4496 13.728 68.8656 13.728C69.5163 13.728 69.975 13.5147 70.2416 13.088C70.519 12.6613 70.6576 11.984 70.6576 11.056V10.384C70.6576 9.488 70.5083 8.79467 70.2096 8.304C69.911 7.80267 69.4576 7.552 68.8496 7.552C68.2736 7.552 67.8683 7.81867 67.6336 8.352C67.4096 8.88533 67.2976 9.65333 67.2976 10.656ZM77.7951 7.12C78.2111 7.12 78.5311 7.23733 78.7551 7.472C78.9898 7.70667 79.1071 8.00533 79.1071 8.368C79.1071 8.61333 79.0431 8.8 78.9151 8.928C78.7978 9.056 78.6378 9.12 78.4351 9.12C78.2858 9.12 78.1471 9.08267 78.0191 9.008C77.9018 8.92267 77.8431 8.79467 77.8431 8.624C77.8431 8.528 77.8645 8.40533 77.9071 8.256C77.9498 8.10667 77.9711 7.98933 77.9711 7.904C77.9711 7.81867 77.9391 7.744 77.8751 7.68C77.8218 7.60533 77.7311 7.568 77.6031 7.568C77.2725 7.568 76.9845 7.728 76.7391 8.048C76.4938 8.35733 76.3018 8.74667 76.1631 9.216C76.0245 9.67467 75.9445 10.1173 75.9231 10.544V13.312C75.9231 13.5147 75.9925 13.616 76.1311 13.616L77.1071 13.584V14H73.8271V13.584L74.3391 13.616C74.4778 13.616 74.5471 13.5147 74.5471 13.312V7.984C74.5471 7.77067 74.4778 7.664 74.3391 7.664L73.7631 7.696V7.28H76.0191C75.9978 7.344 75.9765 7.45067 75.9551 7.6C75.9338 7.73867 75.9231 7.87733 75.9231 8.016V8.8C76.1685 8.20267 76.4405 7.776 76.7391 7.52C77.0485 7.25333 77.4005 7.12 77.7951 7.12ZM86.2081 13.584V14H83.9361C83.9468 13.9253 83.9575 13.8293 83.9681 13.712C83.9895 13.584 84.0001 13.4827 84.0001 13.408L84.0321 12.784C83.7975 13.2427 83.4935 13.5733 83.1201 13.776C82.7575 13.9787 82.3201 14.08 81.8081 14.08C81.1361 14.08 80.6241 13.9307 80.2721 13.632C79.9308 13.3227 79.7601 12.8693 79.7601 12.272C79.7601 11.4507 80.1015 10.848 80.7841 10.464C81.4775 10.0693 82.5601 9.872 84.0321 9.872V8.944C84.0321 8.44267 83.9148 8.08533 83.6801 7.872C83.4455 7.65867 83.0668 7.552 82.5441 7.552C81.7335 7.552 81.3281 7.776 81.3281 8.224C81.3281 8.30933 81.3495 8.41067 81.3921 8.528C81.4455 8.63467 81.4721 8.736 81.4721 8.832C81.4721 9.01333 81.4135 9.152 81.2961 9.248C81.1788 9.33333 81.0295 9.376 80.8481 9.376C80.6241 9.376 80.4481 9.30667 80.3201 9.168C80.2028 9.02933 80.1441 8.848 80.1441 8.624C80.1441 8.176 80.3788 7.81333 80.8481 7.536C81.3175 7.25867 81.9468 7.12 82.7361 7.12C84.5175 7.12 85.4081 7.872 85.4081 9.376V13.312C85.4081 13.5147 85.4775 13.616 85.6161 13.616L86.2081 13.584ZM82.2881 13.504C82.7575 13.504 83.1575 13.312 83.4881 12.928C83.8188 12.5333 84.0001 12.0267 84.0321 11.408V10.304C83.0295 10.304 82.3095 10.4533 81.8721 10.752C81.4348 11.04 81.2161 11.504 81.2161 12.144C81.2161 12.592 81.3068 12.9333 81.4881 13.168C81.6801 13.392 81.9468 13.504 82.2881 13.504Z" fill="black"/>
</svg>
